<svg id="visual" viewBox="0 0 960 540" width="960" height="540" xmlns="http://www.w3.org/2000/svg" xmlns:xlink="http://www.w3.org/1999/xlink" version="1.1"><rect x="0" y="0" width="960" height="540" fill="#ffffff"></rect><defs><linearGradient id="grad1_0" x1="43.8%" y1="100%" x2="100%" y2="0%"><stop offset="14.444444444444446%" stop-color="#ffffff" stop-opacity="1"></stop><stop offset="85.55555555555554%" stop-color="#ffffff" stop-opacity="1"></stop></linearGradient></defs><defs><linearGradient id="grad2_0" x1="0%" y1="100%" x2="56.3%" y2="0%"><stop offset="14.444444444444446%" stop-color="#ffffff" stop-opacity="1"></stop><stop offset="85.55555555555554%" stop-color="#ffffff" stop-opacity="1"></stop></linearGradient></defs><g transform="translate(960, 540)"><path d="M-135 0C-122 -13.3 -109.1 -26.7 -103.5 -42.9C-97.9 -59 -99.6 -78.1 -91.2 -91.2C-82.8 -104.4 -64.3 -111.6 -47.5 -114.6C-30.6 -117.5 -15.3 -116.3 0 -115L0 0Z" fill="#4790e7"></path></g><g transform="translate(0, 0)"><path d="M126 0C127 16.9 128.1 33.8 123.8 51.3C119.5 68.8 110 86.8 95.5 95.5C81 104.1 61.5 103.4 44.8 108.1C28 112.8 14 122.9 0 133L0 0Z" fill="#4790e7"></path></g></svg>