<svg id="visual" viewBox="0 0 900 120" width="900" height="120" xmlns="http://www.w3.org/2000/svg" xmlns:xlink="http://www.w3.org/1999/xlink" version="1.1"><path d="M0 20L10.7 25.7C21.3 31.3 42.7 42.7 64.2 48.2C85.7 53.7 107.3 53.3 128.8 48.7C150.3 44 171.7 35 193 32.8C214.3 30.7 235.7 35.3 257 40.8C278.3 46.3 299.7 52.7 321.2 51.2C342.7 49.7 364.3 40.3 385.8 38.3C407.3 36.3 428.7 41.7 450 46.5C471.3 51.3 492.7 55.7 514.2 56.3C535.7 57 557.3 54 578.8 52.5C600.3 51 621.7 51 643 45.7C664.3 40.3 685.7 29.7 707 29.8C728.3 30 749.7 41 771.2 42.5C792.7 44 814.3 36 835.8 35.7C857.3 35.3 878.7 42.7 889.3 46.3L900 50L900 121L889.3 121C878.7 121 857.3 121 835.8 121C814.3 121 792.7 121 771.2 121C749.7 121 728.3 121 707 121C685.7 121 664.3 121 643 121C621.7 121 600.3 121 578.8 121C557.3 121 535.7 121 514.2 121C492.7 121 471.3 121 450 121C428.7 121 407.3 121 385.8 121C364.3 121 342.7 121 321.2 121C299.7 121 278.3 121 257 121C235.7 121 214.3 121 193 121C171.7 121 150.3 121 128.8 121C107.3 121 85.7 121 64.2 121C42.7 121 21.3 121 10.7 121L0 121Z" fill="#387aca"></path><path d="M0 71L10.7 72.3C21.3 73.7 42.7 76.3 64.2 77.5C85.7 78.7 107.3 78.3 128.8 77C150.3 75.7 171.7 73.3 193 71.2C214.3 69 235.7 67 257 68.5C278.3 70 299.7 75 321.2 76.2C342.7 77.3 364.3 74.7 385.8 70.5C407.3 66.3 428.7 60.7 450 57.3C471.3 54 492.7 53 514.2 58C535.7 63 557.3 74 578.8 80C600.3 86 621.7 87 643 82.5C664.3 78 685.7 68 707 62.2C728.3 56.3 749.7 54.7 771.2 57.8C792.7 61 814.3 69 835.8 69.8C857.3 70.7 878.7 64.3 889.3 61.2L900 58L900 121L889.3 121C878.7 121 857.3 121 835.8 121C814.3 121 792.7 121 771.2 121C749.7 121 728.3 121 707 121C685.7 121 664.3 121 643 121C621.7 121 600.3 121 578.8 121C557.3 121 535.7 121 514.2 121C492.7 121 471.3 121 450 121C428.7 121 407.3 121 385.8 121C364.3 121 342.7 121 321.2 121C299.7 121 278.3 121 257 121C235.7 121 214.3 121 193 121C171.7 121 150.3 121 128.8 121C107.3 121 85.7 121 64.2 121C42.7 121 21.3 121 10.7 121L0 121Z" fill="#3473c0"></path><path d="M0 75L10.7 80.2C21.3 85.3 42.7 95.7 64.2 96.3C85.7 97 107.3 88 128.8 87.8C150.3 87.7 171.7 96.3 193 99.2C214.3 102 235.7 99 257 94C278.3 89 299.7 82 321.2 78.2C342.7 74.3 364.3 73.7 385.8 78.3C407.3 83 428.7 93 450 95.5C471.3 98 492.7 93 514.2 90.3C535.7 87.7 557.3 87.3 578.8 90.3C600.3 93.3 621.7 99.7 643 102C664.3 104.3 685.7 102.7 707 97.5C728.3 92.3 749.7 83.7 771.2 79.5C792.7 75.3 814.3 75.7 835.8 81C857.3 86.3 878.7 96.7 889.3 101.8L900 107L900 121L889.3 121C878.7 121 857.3 121 835.8 121C814.3 121 792.7 121 771.2 121C749.7 121 728.3 121 707 121C685.7 121 664.3 121 643 121C621.7 121 600.3 121 578.8 121C557.3 121 535.7 121 514.2 121C492.7 121 471.3 121 450 121C428.7 121 407.3 121 385.8 121C364.3 121 342.7 121 321.2 121C299.7 121 278.3 121 257 121C235.7 121 214.3 121 193 121C171.7 121 150.3 121 128.8 121C107.3 121 85.7 121 64.2 121C42.7 121 21.3 121 10.7 121L0 121Z" fill="#2f6cb7"></path></svg>