<svg id="visual" viewBox="0 0 900 600" width="900" height="600" xmlns="http://www.w3.org/2000/svg" xmlns:xlink="http://www.w3.org/1999/xlink" version="1.1"><g fill="#c4deff"><circle r="49" cx="23" cy="564"></circle><circle r="13" cx="579" cy="524"></circle><circle r="44" cx="401" cy="155"></circle><circle r="38" cx="252" cy="179"></circle><circle r="16" cx="872" cy="550"></circle><circle r="28" cx="110" cy="166"></circle><circle r="43" cx="507" cy="258"></circle><circle r="16" cx="538" cy="107"></circle><circle r="39" cx="305" cy="468"></circle><circle r="35" cx="450" cy="511"></circle><circle r="35" cx="499" cy="386"></circle><circle r="30" cx="204" cy="487"></circle><circle r="26" cx="115" cy="414"></circle><circle r="12" cx="628" cy="428"></circle><circle r="12" cx="750" cy="430"></circle><circle r="33" cx="63" cy="33"></circle><circle r="18" cx="23" cy="308"></circle><circle r="35" cx="722" cy="182"></circle><circle r="13" cx="783" cy="60"></circle><circle r="19" cx="282" cy="59"></circle><circle r="32" cx="390" cy="588"></circle><circle r="13" cx="641" cy="255"></circle><circle r="26" cx="214" cy="315"></circle><circle r="15" cx="851" cy="420"></circle><circle r="24" cx="135" cy="592"></circle><circle r="43" cx="675" cy="48"></circle><circle r="32" cx="836" cy="263"></circle><circle r="37" cx="427" cy="15"></circle><circle r="26" cx="248" cy="590"></circle><circle r="34" cx="537" cy="1"></circle><circle r="38" cx="701" cy="515"></circle><circle r="20" cx="310" cy="353"></circle><circle r="32" cx="878" cy="83"></circle><circle r="36" cx="163" cy="52"></circle><circle r="46" cx="399" cy="278"></circle><circle r="14" cx="125" cy="274"></circle><circle r="46" cx="11" cy="436"></circle><circle r="14" cx="742" cy="312"></circle><circle r="37" cx="507" cy="591"></circle><circle r="16" cx="785" cy="592"></circle><circle r="36" cx="621" cy="158"></circle><circle r="39" cx="16" cy="123"></circle><circle r="39" cx="819" cy="162"></circle></g></svg>