<svg id="visual" viewBox="0 0 900 100" width="900" height="100" xmlns="http://www.w3.org/2000/svg" xmlns:xlink="http://www.w3.org/1999/xlink" version="1.1"><rect x="0" y="0" width="900" height="100" fill="#ffffff"></rect><path d="M0 64L10 65C20 66 40 68 60 65.2C80 62.3 100 54.7 120 49.3C140 44 160 41 180 43.7C200 46.3 220 54.7 240 58C260 61.3 280 59.7 300 61.2C320 62.7 340 67.3 360 67.3C380 67.3 400 62.7 420 56.7C440 50.7 460 43.3 480 45.2C500 47 520 58 540 57.7C560 57.3 580 45.7 600 38.7C620 31.7 640 29.3 660 33.7C680 38 700 49 720 55.2C740 61.3 760 62.7 780 64C800 65.3 820 66.7 840 62.8C860 59 880 50 890 45.5L900 41L900 0L890 0C880 0 860 0 840 0C820 0 800 0 780 0C760 0 740 0 720 0C700 0 680 0 660 0C640 0 620 0 600 0C580 0 560 0 540 0C520 0 500 0 480 0C460 0 440 0 420 0C400 0 380 0 360 0C340 0 320 0 300 0C280 0 260 0 240 0C220 0 200 0 180 0C160 0 140 0 120 0C100 0 80 0 60 0C40 0 20 0 10 0L0 0Z" fill="#4790e7" stroke-linecap="round" stroke-linejoin="miter"></path></svg>