<svg id="visual" viewBox="0 0 960 100" width="960" height="100" xmlns="http://www.w3.org/2000/svg" xmlns:xlink="http://www.w3.org/1999/xlink" version="1.1"><rect x="0" y="0" width="960" height="100" fill="#ffffff"></rect><path d="M0 62L10 64.8C20 67.7 40 73.3 60 73.2C80 73 100 67 120 66.8C140 66.7 160 72.3 180 76.7C200 81 220 84 240 85.2C260 86.3 280 85.7 300 84.7C320 83.7 340 82.3 360 80C380 77.7 400 74.3 420 74.7C440 75 460 79 480 77.5C500 76 520 69 540 67.5C560 66 580 70 600 72.8C620 75.7 640 77.3 660 78.5C680 79.7 700 80.3 720 79.2C740 78 760 75 780 74.7C800 74.3 820 76.7 840 78.3C860 80 880 81 900 78.8C920 76.7 940 71.3 950 68.7L960 66L960 0L950 0C940 0 920 0 900 0C880 0 860 0 840 0C820 0 800 0 780 0C760 0 740 0 720 0C700 0 680 0 660 0C640 0 620 0 600 0C580 0 560 0 540 0C520 0 500 0 480 0C460 0 440 0 420 0C400 0 380 0 360 0C340 0 320 0 300 0C280 0 260 0 240 0C220 0 200 0 180 0C160 0 140 0 120 0C100 0 80 0 60 0C40 0 20 0 10 0L0 0Z" fill="#4790e7"></path><path d="M0 64L10 61.2C20 58.3 40 52.7 60 54.2C80 55.7 100 64.3 120 64.3C140 64.3 160 55.7 180 55.2C200 54.7 220 62.3 240 62.7C260 63 280 56 300 54.3C320 52.7 340 56.3 360 56.7C380 57 400 54 420 54C440 54 460 57 480 59.7C500 62.3 520 64.7 540 64.5C560 64.3 580 61.7 600 58.7C620 55.7 640 52.3 660 53.5C680 54.7 700 60.3 720 63C740 65.7 760 65.3 780 65C800 64.7 820 64.3 840 62.2C860 60 880 56 900 53C920 50 940 48 950 47L960 46L960 0L950 0C940 0 920 0 900 0C880 0 860 0 840 0C820 0 800 0 780 0C760 0 740 0 720 0C700 0 680 0 660 0C640 0 620 0 600 0C580 0 560 0 540 0C520 0 500 0 480 0C460 0 440 0 420 0C400 0 380 0 360 0C340 0 320 0 300 0C280 0 260 0 240 0C220 0 200 0 180 0C160 0 140 0 120 0C100 0 80 0 60 0C40 0 20 0 10 0L0 0Z" fill="#387aca"></path><path d="M0 50L10 48.8C20 47.7 40 45.3 60 43.8C80 42.3 100 41.7 120 39.8C140 38 160 35 180 37.2C200 39.3 220 46.7 240 46.7C260 46.7 280 39.3 300 37.2C320 35 340 38 360 41.8C380 45.7 400 50.3 420 52C440 53.7 460 52.3 480 51.7C500 51 520 51 540 49.3C560 47.7 580 44.3 600 43.2C620 42 640 43 660 42.8C680 42.7 700 41.3 720 40.8C740 40.3 760 40.7 780 41.7C800 42.7 820 44.3 840 43.5C860 42.7 880 39.3 900 40.7C920 42 940 48 950 51L960 54L960 0L950 0C940 0 920 0 900 0C880 0 860 0 840 0C820 0 800 0 780 0C760 0 740 0 720 0C700 0 680 0 660 0C640 0 620 0 600 0C580 0 560 0 540 0C520 0 500 0 480 0C460 0 440 0 420 0C400 0 380 0 360 0C340 0 320 0 300 0C280 0 260 0 240 0C220 0 200 0 180 0C160 0 140 0 120 0C100 0 80 0 60 0C40 0 20 0 10 0L0 0Z" fill="#2965ad"></path><path d="M0 26L10 27.5C20 29 40 32 60 34.3C80 36.7 100 38.3 120 35.5C140 32.7 160 25.3 180 24.5C200 23.7 220 29.3 240 30.7C260 32 280 29 300 28.5C320 28 340 30 360 30C380 30 400 28 420 29.2C440 30.3 460 34.7 480 33.7C500 32.7 520 26.3 540 26.5C560 26.7 580 33.3 600 36.8C620 40.3 640 40.7 660 38C680 35.3 700 29.7 720 26.5C740 23.3 760 22.7 780 24.3C800 26 820 30 840 31.8C860 33.7 880 33.3 900 32C920 30.7 940 28.3 950 27.2L960 26L960 0L950 0C940 0 920 0 900 0C880 0 860 0 840 0C820 0 800 0 780 0C760 0 740 0 720 0C700 0 680 0 660 0C640 0 620 0 600 0C580 0 560 0 540 0C520 0 500 0 480 0C460 0 440 0 420 0C400 0 380 0 360 0C340 0 320 0 300 0C280 0 260 0 240 0C220 0 200 0 180 0C160 0 140 0 120 0C100 0 80 0 60 0C40 0 20 0 10 0L0 0Z" fill="#195191"></path><path d="M0 19L10 17.3C20 15.7 40 12.3 60 12.3C80 12.3 100 15.7 120 17.8C140 20 160 21 180 20.5C200 20 220 18 240 16C260 14 280 12 300 10.5C320 9 340 8 360 9.2C380 10.3 400 13.7 420 16.2C440 18.7 460 20.3 480 19.7C500 19 520 16 540 15.2C560 14.3 580 15.7 600 15.8C620 16 640 15 660 14.3C680 13.7 700 13.3 720 14.5C740 15.7 760 18.3 780 17.5C800 16.7 820 12.3 840 10.5C860 8.7 880 9.3 900 9.2C920 9 940 8 950 7.5L960 7L960 0L950 0C940 0 920 0 900 0C880 0 860 0 840 0C820 0 800 0 780 0C760 0 740 0 720 0C700 0 680 0 660 0C640 0 620 0 600 0C580 0 560 0 540 0C520 0 500 0 480 0C460 0 440 0 420 0C400 0 380 0 360 0C340 0 320 0 300 0C280 0 260 0 240 0C220 0 200 0 180 0C160 0 140 0 120 0C100 0 80 0 60 0C40 0 20 0 10 0L0 0Z" fill="#043d76"></path></svg>