<svg id="visual" viewBox="0 0 960 100" width="960" height="100" xmlns="http://www.w3.org/2000/svg" xmlns:xlink="http://www.w3.org/1999/xlink" version="1.1"><path d="M0 51L9.3 51.3C18.7 51.7 37.3 52.3 56.2 50.5C75 48.7 94 44.3 112.8 44.5C131.7 44.7 150.3 49.3 169.2 54.7C188 60 207 66 225.8 66.8C244.7 67.7 263.3 63.3 282.2 58.3C301 53.3 320 47.7 338.8 45C357.7 42.3 376.3 42.7 395.2 43.2C414 43.7 433 44.3 451.8 43.7C470.7 43 489.3 41 508.2 43C527 45 546 51 564.8 53.3C583.7 55.7 602.3 54.3 621.2 51.3C640 48.3 659 43.7 677.8 39.2C696.7 34.7 715.3 30.3 734.2 31.7C753 33 772 40 790.8 45.8C809.7 51.7 828.3 56.3 847.2 53.7C866 51 885 41 903.8 43C922.7 45 941.3 59 950.7 66L960 73L960 0L950.7 0C941.3 0 922.7 0 903.8 0C885 0 866 0 847.2 0C828.3 0 809.7 0 790.8 0C772 0 753 0 734.2 0C715.3 0 696.7 0 677.8 0C659 0 640 0 621.2 0C602.3 0 583.7 0 564.8 0C546 0 527 0 508.2 0C489.3 0 470.7 0 451.8 0C433 0 414 0 395.2 0C376.3 0 357.7 0 338.8 0C320 0 301 0 282.2 0C263.3 0 244.7 0 225.8 0C207 0 188 0 169.2 0C150.3 0 131.7 0 112.8 0C94 0 75 0 56.2 0C37.3 0 18.7 0 9.3 0L0 0Z" fill="#4790e7" stroke-linecap="round" stroke-linejoin="miter"></path></svg>